M48
; DRILL file {KiCad 8.0.7} date 2025-01-06T22:00:44+0100
; FORMAT={-:-/ absolute / inch / decimal}
; #@! TF.CreationDate,2025-01-06T22:00:44+01:00
; #@! TF.GenerationSoftware,Kicad,Pcbnew,8.0.7
; #@! TF.FileFunction,MixedPlating,1,4
FMAT,2
INCH
; #@! TA.AperFunction,Plated,PTH,ViaDrill
T1C0.0118
; #@! TA.AperFunction,Plated,PTH,ComponentDrill
T2C0.0394
; #@! TA.AperFunction,Plated,PTH,ComponentDrill
T3C0.0433
; #@! TA.AperFunction,NonPlated,NPTH,ComponentDrill
T4C0.0866
%
G90
G05
T1
X4.494Y-4.298
X4.815Y-3.795
X4.958Y-5.386
X4.982Y-4.464
X5.122Y-3.5874
X5.19Y-4.5768
X5.1921Y-3.088
X5.21Y-5.38
X5.2205Y-4.064
X5.226Y-3.914
X5.258Y-4.2956
X5.2819Y-4.4919
X5.2831Y-4.5631
X5.3Y-4.27
X5.32Y-4.322
X5.3622Y-3.656
X5.364Y-3.588
X5.43Y-5.392
X5.4453Y-4.0993
X5.492Y-3.312
X5.5039Y-3.937
X5.522Y-4.354
X5.522Y-4.394
X5.59Y-4.458
X5.6299Y-5.3781
X5.632Y-4.462
X5.67Y-4.372
X5.7579Y-4.262
X5.8031Y-4.1732
X5.818Y-4.4924
X5.8603Y-4.4863
X5.886Y-4.0504
X5.896Y-5.37
X5.9063Y-4.4762
X5.9533Y-4.4653
X5.956Y-4.198
X5.956Y-4.304
X5.9616Y-4.1476
X5.98Y-4.224
X5.9844Y-4.3376
X6.014Y-4.2496
X6.03Y-4.86
X6.0325Y-3.5882
X6.0374Y-4.824
X6.0374Y-4.906
X6.04Y-4.076
X6.042Y-3.488
X6.062Y-4.972
X6.0696Y-4.312
X6.096Y-5.364
X6.14Y-3.782
X6.1549Y-4.5469
X6.284Y-4.3
X6.284Y-4.334
X6.302Y-4.098
X6.336Y-4.824
X6.448Y-4.0798
X6.4844Y-4.5776
X6.626Y-5.032
X6.682Y-4.582
X6.888Y-3.698
X6.892Y-4.298
X6.894Y-4.396
T2
X4.6063Y-3.3969
X4.6063Y-3.4969
X4.6063Y-3.5969
X4.6063Y-3.6969
X4.6063Y-3.7969
X4.6063Y-3.8969
X4.6063Y-3.9969
X4.6063Y-4.0969
X4.6063Y-4.1969
X4.6063Y-4.2969
X4.6063Y-4.3969
X4.6063Y-4.4969
X4.6063Y-4.5969
X4.6063Y-4.6969
X4.6063Y-4.7969
X4.6063Y-4.8969
X4.6063Y-4.9969
X4.6063Y-5.0969
X4.6063Y-5.1969
X4.7063Y-3.3969
X4.7063Y-3.4969
X4.7063Y-3.5969
X4.7063Y-3.6969
X4.7063Y-3.7969
X4.7063Y-3.8969
X4.7063Y-3.9969
X4.7063Y-4.0969
X4.7063Y-4.1969
X4.7063Y-4.2969
X4.7063Y-4.3969
X4.7063Y-4.4969
X4.7063Y-4.5969
X4.7063Y-4.6969
X4.7063Y-4.7969
X4.7063Y-4.8969
X4.7063Y-4.9969
X4.7063Y-5.0969
X4.7063Y-5.1969
X4.9575Y-5.5118
X5.0575Y-5.5118
X5.1575Y-5.5118
X5.1921Y-3.1988
X5.2921Y-3.1988
X5.3921Y-3.1988
X5.4299Y-5.5118
X5.4921Y-3.1988
X5.5299Y-5.5118
X5.5921Y-3.1988
X5.6299Y-5.5118
X5.8957Y-5.5118
X5.914Y-3.4882
X5.914Y-3.5882
X5.9957Y-5.5118
X6.0957Y-5.5118
X7.0079Y-3.3969
X7.0079Y-3.4969
X7.0079Y-3.5969
X7.0079Y-3.6969
X7.0079Y-3.7969
X7.0079Y-3.8969
X7.0079Y-3.9969
X7.0079Y-4.0969
X7.0079Y-4.1969
X7.0079Y-4.2969
X7.0079Y-4.3969
X7.0079Y-4.4969
X7.0079Y-4.5969
X7.0079Y-4.6969
X7.0079Y-4.7969
X7.0079Y-4.8969
X7.0079Y-4.9969
X7.0079Y-5.0969
X7.0079Y-5.1969
X7.1079Y-3.3969
X7.1079Y-3.4969
X7.1079Y-3.5969
X7.1079Y-3.6969
X7.1079Y-3.7969
X7.1079Y-3.8969
X7.1079Y-3.9969
X7.1079Y-4.0969
X7.1079Y-4.1969
X7.1079Y-4.2969
X7.1079Y-4.3969
X7.1079Y-4.4969
X7.1079Y-4.5969
X7.1079Y-4.6969
X7.1079Y-4.7969
X7.1079Y-4.8969
X7.1079Y-4.9969
X7.1079Y-5.0969
X7.1079Y-5.1969
T3
X6.266Y-3.44
X6.266Y-3.6172
X6.5219Y-3.44
X6.5219Y-3.6172
T4
X4.6457Y-3.0709
X4.6457Y-5.4331
X7.0472Y-3.0709
X7.0472Y-5.4331
M30
