%TF.GenerationSoftware,KiCad,Pcbnew,8.0.7*%
%TF.CreationDate,2025-02-28T19:14:48+01:00*%
%TF.ProjectId,Clovece nezlob se PCB,436c6f76-6563-4652-906e-657a6c6f6220,rev?*%
%TF.SameCoordinates,Original*%
%TF.FileFunction,Soldermask,Bot*%
%TF.FilePolarity,Negative*%
%FSLAX46Y46*%
G04 Gerber Fmt 4.6, Leading zero omitted, Abs format (unit mm)*
G04 Created by KiCad (PCBNEW 8.0.7) date 2025-02-28 19:14:48*
%MOMM*%
%LPD*%
G01*
G04 APERTURE LIST*
%ADD10C,0.800000*%
%ADD11C,5.400000*%
%ADD12R,3.000000X3.000000*%
%ADD13C,3.000000*%
%ADD14R,1.700000X1.700000*%
%ADD15O,1.700000X1.700000*%
%ADD16C,5.604000*%
%ADD17C,5.028000*%
%ADD18C,2.000000*%
G04 APERTURE END LIST*
D10*
%TO.C,H2*%
X177906891Y-77431891D03*
X178500000Y-76000000D03*
X178500000Y-78863782D03*
X179931891Y-75406891D03*
D11*
X179931891Y-77431891D03*
D10*
X179931891Y-79456891D03*
X181363782Y-76000000D03*
X181363782Y-78863782D03*
X181956891Y-77431891D03*
%TD*%
D12*
%TO.C,J8*%
X128810001Y-140400000D03*
D13*
X133890001Y-140400000D03*
%TD*%
D14*
%TO.C,J3*%
X172180000Y-140300000D03*
D15*
X169640000Y-140300000D03*
X167100000Y-140300000D03*
%TD*%
D10*
%TO.C,H3*%
X177975000Y-139500000D03*
X178568109Y-138068109D03*
X178568109Y-140931891D03*
X180000000Y-137475000D03*
D11*
X180000000Y-139500000D03*
D10*
X180000000Y-141525000D03*
X181431891Y-138068109D03*
X181431891Y-140931891D03*
X182025000Y-139500000D03*
%TD*%
%TO.C,H4*%
X116475000Y-139431891D03*
X117068109Y-138000000D03*
X117068109Y-140863782D03*
X118500000Y-137406891D03*
D11*
X118500000Y-139431891D03*
D10*
X118500000Y-141456891D03*
X119931891Y-138000000D03*
X119931891Y-140863782D03*
X120525000Y-139431891D03*
%TD*%
D14*
%TO.C,J1*%
X160000000Y-140200000D03*
D15*
X157460000Y-140200000D03*
X154920000Y-140200000D03*
%TD*%
D14*
%TO.C,J6*%
X177960000Y-85880000D03*
D15*
X180500000Y-85880000D03*
X177960000Y-88420000D03*
X180500000Y-88420000D03*
X177960000Y-90960000D03*
X180500000Y-90960000D03*
X177960000Y-93500000D03*
X180500000Y-93500000D03*
X177960000Y-96040000D03*
X180500000Y-96040000D03*
X177960000Y-98580000D03*
X180500000Y-98580000D03*
X177960000Y-101120000D03*
X180500000Y-101120000D03*
X177960000Y-103660000D03*
X180500000Y-103660000D03*
X177960000Y-106200000D03*
X180500000Y-106200000D03*
X177960000Y-108740000D03*
X180500000Y-108740000D03*
X177960000Y-111280000D03*
X180500000Y-111280000D03*
X177960000Y-113820000D03*
X180500000Y-113820000D03*
X177960000Y-116360000D03*
X180500000Y-116360000D03*
X177960000Y-118900000D03*
X180500000Y-118900000D03*
X177960000Y-121440000D03*
X180500000Y-121440000D03*
X177960000Y-123980000D03*
X180500000Y-123980000D03*
X177960000Y-126520000D03*
X180500000Y-126520000D03*
X177960000Y-129060000D03*
X180500000Y-129060000D03*
X177960000Y-131600000D03*
X180500000Y-131600000D03*
%TD*%
D16*
%TO.C,J5*%
X137100000Y-80900000D03*
D17*
X137100000Y-74600000D03*
X132300000Y-78000000D03*
%TD*%
D18*
%TO.C,SW1*%
X145600000Y-82500000D03*
X152100000Y-82500000D03*
X145600000Y-87000000D03*
X152100000Y-87000000D03*
%TD*%
D14*
%TO.C,J4*%
X117000000Y-85880000D03*
D15*
X119540000Y-85880000D03*
X117000000Y-88420000D03*
X119540000Y-88420000D03*
X117000000Y-90960000D03*
X119540000Y-90960000D03*
X117000000Y-93500000D03*
X119540000Y-93500000D03*
X117000000Y-96040000D03*
X119540000Y-96040000D03*
X117000000Y-98580000D03*
X119540000Y-98580000D03*
X117000000Y-101120000D03*
X119540000Y-101120000D03*
X117000000Y-103660000D03*
X119540000Y-103660000D03*
X117000000Y-106200000D03*
X119540000Y-106200000D03*
X117000000Y-108740000D03*
X119540000Y-108740000D03*
X117000000Y-111280000D03*
X119540000Y-111280000D03*
X117000000Y-113820000D03*
X119540000Y-113820000D03*
X117000000Y-116360000D03*
X119540000Y-116360000D03*
X117000000Y-118900000D03*
X119540000Y-118900000D03*
X117000000Y-121440000D03*
X119540000Y-121440000D03*
X117000000Y-123980000D03*
X119540000Y-123980000D03*
X117000000Y-126520000D03*
X119540000Y-126520000D03*
X117000000Y-129060000D03*
X119540000Y-129060000D03*
X117000000Y-131600000D03*
X119540000Y-131600000D03*
%TD*%
D14*
%TO.C,J7*%
X152920000Y-76000000D03*
D15*
X155460000Y-76000000D03*
X158000000Y-76000000D03*
X160540000Y-76000000D03*
X163080000Y-76000000D03*
%TD*%
D14*
%TO.C,J2*%
X148140000Y-140300000D03*
D15*
X145600000Y-140300000D03*
X143060000Y-140300000D03*
%TD*%
D10*
%TO.C,H1*%
X116475000Y-77500000D03*
X117068109Y-76068109D03*
X117068109Y-78931891D03*
X118500000Y-75475000D03*
D11*
X118500000Y-77500000D03*
D10*
X118500000Y-79525000D03*
X119931891Y-76068109D03*
X119931891Y-78931891D03*
X120525000Y-77500000D03*
%TD*%
D18*
%TO.C,SW2*%
X158975000Y-92650000D03*
X158975000Y-86150000D03*
X163475000Y-92650000D03*
X163475000Y-86150000D03*
%TD*%
M02*
