%TF.GenerationSoftware,KiCad,Pcbnew,8.0.7*%
%TF.CreationDate,2025-02-28T19:14:48+01:00*%
%TF.ProjectId,Clovece nezlob se PCB,436c6f76-6563-4652-906e-657a6c6f6220,rev?*%
%TF.SameCoordinates,Original*%
%TF.FileFunction,Soldermask,Top*%
%TF.FilePolarity,Negative*%
%FSLAX46Y46*%
G04 Gerber Fmt 4.6, Leading zero omitted, Abs format (unit mm)*
G04 Created by KiCad (PCBNEW 8.0.7) date 2025-02-28 19:14:48*
%MOMM*%
%LPD*%
G01*
G04 APERTURE LIST*
G04 Aperture macros list*
%AMRoundRect*
0 Rectangle with rounded corners*
0 $1 Rounding radius*
0 $2 $3 $4 $5 $6 $7 $8 $9 X,Y pos of 4 corners*
0 Add a 4 corners polygon primitive as box body*
4,1,4,$2,$3,$4,$5,$6,$7,$8,$9,$2,$3,0*
0 Add four circle primitives for the rounded corners*
1,1,$1+$1,$2,$3*
1,1,$1+$1,$4,$5*
1,1,$1+$1,$6,$7*
1,1,$1+$1,$8,$9*
0 Add four rect primitives between the rounded corners*
20,1,$1+$1,$2,$3,$4,$5,0*
20,1,$1+$1,$4,$5,$6,$7,0*
20,1,$1+$1,$6,$7,$8,$9,0*
20,1,$1+$1,$8,$9,$2,$3,0*%
G04 Aperture macros list end*
%ADD10C,0.800000*%
%ADD11C,5.400000*%
%ADD12R,3.000000X3.000000*%
%ADD13C,3.000000*%
%ADD14R,1.700000X1.700000*%
%ADD15O,1.700000X1.700000*%
%ADD16RoundRect,0.250000X0.350000X0.450000X-0.350000X0.450000X-0.350000X-0.450000X0.350000X-0.450000X0*%
%ADD17RoundRect,0.250000X-0.350000X-0.450000X0.350000X-0.450000X0.350000X0.450000X-0.350000X0.450000X0*%
%ADD18RoundRect,0.250000X0.412500X0.650000X-0.412500X0.650000X-0.412500X-0.650000X0.412500X-0.650000X0*%
%ADD19RoundRect,0.250000X0.400000X0.625000X-0.400000X0.625000X-0.400000X-0.625000X0.400000X-0.625000X0*%
%ADD20RoundRect,0.250000X-0.337500X-0.475000X0.337500X-0.475000X0.337500X0.475000X-0.337500X0.475000X0*%
%ADD21RoundRect,0.250000X-0.475000X0.337500X-0.475000X-0.337500X0.475000X-0.337500X0.475000X0.337500X0*%
%ADD22RoundRect,0.375000X-0.375000X0.625000X-0.375000X-0.625000X0.375000X-0.625000X0.375000X0.625000X0*%
%ADD23RoundRect,0.500000X-1.400000X0.500000X-1.400000X-0.500000X1.400000X-0.500000X1.400000X0.500000X0*%
%ADD24RoundRect,0.250000X0.337500X0.475000X-0.337500X0.475000X-0.337500X-0.475000X0.337500X-0.475000X0*%
%ADD25C,5.604000*%
%ADD26C,5.028000*%
%ADD27C,2.000000*%
%ADD28RoundRect,0.250000X-0.450000X0.350000X-0.450000X-0.350000X0.450000X-0.350000X0.450000X0.350000X0*%
%ADD29RoundRect,0.250000X-1.500000X-0.900000X1.500000X-0.900000X1.500000X0.900000X-1.500000X0.900000X0*%
%ADD30RoundRect,0.250000X0.450000X-0.350000X0.450000X0.350000X-0.450000X0.350000X-0.450000X-0.350000X0*%
%ADD31RoundRect,0.250000X0.325000X0.450000X-0.325000X0.450000X-0.325000X-0.450000X0.325000X-0.450000X0*%
%ADD32RoundRect,0.162500X0.837500X0.162500X-0.837500X0.162500X-0.837500X-0.162500X0.837500X-0.162500X0*%
%ADD33RoundRect,0.075000X-0.700000X-0.075000X0.700000X-0.075000X0.700000X0.075000X-0.700000X0.075000X0*%
%ADD34RoundRect,0.075000X-0.075000X-0.700000X0.075000X-0.700000X0.075000X0.700000X-0.075000X0.700000X0*%
G04 APERTURE END LIST*
D10*
%TO.C,H2*%
X177906891Y-77431891D03*
X178500000Y-76000000D03*
X178500000Y-78863782D03*
X179931891Y-75406891D03*
D11*
X179931891Y-77431891D03*
D10*
X179931891Y-79456891D03*
X181363782Y-76000000D03*
X181363782Y-78863782D03*
X181956891Y-77431891D03*
%TD*%
D12*
%TO.C,J8*%
X128810001Y-140400000D03*
D13*
X133890001Y-140400000D03*
%TD*%
D14*
%TO.C,J3*%
X172180000Y-140300000D03*
D15*
X169640000Y-140300000D03*
X167100000Y-140300000D03*
%TD*%
D10*
%TO.C,H3*%
X177975000Y-139500000D03*
X178568109Y-138068109D03*
X178568109Y-140931891D03*
X180000000Y-137475000D03*
D11*
X180000000Y-139500000D03*
D10*
X180000000Y-141525000D03*
X181431891Y-138068109D03*
X181431891Y-140931891D03*
X182025000Y-139500000D03*
%TD*%
D16*
%TO.C,R7*%
X135600000Y-129600000D03*
X133600000Y-129600000D03*
%TD*%
D10*
%TO.C,H4*%
X116475000Y-139431891D03*
X117068109Y-138000000D03*
X117068109Y-140863782D03*
X118500000Y-137406891D03*
D11*
X118500000Y-139431891D03*
D10*
X118500000Y-141456891D03*
X119931891Y-138000000D03*
X119931891Y-140863782D03*
X120525000Y-139431891D03*
%TD*%
D14*
%TO.C,J1*%
X160000000Y-140200000D03*
D15*
X157460000Y-140200000D03*
X154920000Y-140200000D03*
%TD*%
D17*
%TO.C,R1*%
X146000000Y-79100000D03*
X148000000Y-79100000D03*
%TD*%
D18*
%TO.C,C4*%
X134625000Y-101050000D03*
X131500000Y-101050000D03*
%TD*%
D19*
%TO.C,R5*%
X171750000Y-131100000D03*
X168650000Y-131100000D03*
%TD*%
D14*
%TO.C,J6*%
X177960000Y-85880000D03*
D15*
X180500000Y-85880000D03*
X177960000Y-88420000D03*
X180500000Y-88420000D03*
X177960000Y-90960000D03*
X180500000Y-90960000D03*
X177960000Y-93500000D03*
X180500000Y-93500000D03*
X177960000Y-96040000D03*
X180500000Y-96040000D03*
X177960000Y-98580000D03*
X180500000Y-98580000D03*
X177960000Y-101120000D03*
X180500000Y-101120000D03*
X177960000Y-103660000D03*
X180500000Y-103660000D03*
X177960000Y-106200000D03*
X180500000Y-106200000D03*
X177960000Y-108740000D03*
X180500000Y-108740000D03*
X177960000Y-111280000D03*
X180500000Y-111280000D03*
X177960000Y-113820000D03*
X180500000Y-113820000D03*
X177960000Y-116360000D03*
X180500000Y-116360000D03*
X177960000Y-118900000D03*
X180500000Y-118900000D03*
X177960000Y-121440000D03*
X180500000Y-121440000D03*
X177960000Y-123980000D03*
X180500000Y-123980000D03*
X177960000Y-126520000D03*
X180500000Y-126520000D03*
X177960000Y-129060000D03*
X180500000Y-129060000D03*
X177960000Y-131600000D03*
X180500000Y-131600000D03*
%TD*%
D20*
%TO.C,C2*%
X130362500Y-89700000D03*
X132437500Y-89700000D03*
%TD*%
D18*
%TO.C,C1*%
X132362500Y-87200000D03*
X129237500Y-87200000D03*
%TD*%
D21*
%TO.C,C6*%
X152900000Y-104762500D03*
X152900000Y-106837500D03*
%TD*%
D22*
%TO.C,U1*%
X137000000Y-92150000D03*
X134700000Y-92150000D03*
D23*
X134700000Y-98450000D03*
D22*
X132400000Y-92150000D03*
%TD*%
D24*
%TO.C,C3*%
X161262500Y-95650000D03*
X159187500Y-95650000D03*
%TD*%
D25*
%TO.C,J5*%
X137100000Y-80900000D03*
D26*
X137100000Y-74600000D03*
X132300000Y-78000000D03*
%TD*%
D27*
%TO.C,SW1*%
X145600000Y-82500000D03*
X152100000Y-82500000D03*
X145600000Y-87000000D03*
X152100000Y-87000000D03*
%TD*%
D19*
%TO.C,R3*%
X159450000Y-131200000D03*
X156350000Y-131200000D03*
%TD*%
D14*
%TO.C,J4*%
X117000000Y-85880000D03*
D15*
X119540000Y-85880000D03*
X117000000Y-88420000D03*
X119540000Y-88420000D03*
X117000000Y-90960000D03*
X119540000Y-90960000D03*
X117000000Y-93500000D03*
X119540000Y-93500000D03*
X117000000Y-96040000D03*
X119540000Y-96040000D03*
X117000000Y-98580000D03*
X119540000Y-98580000D03*
X117000000Y-101120000D03*
X119540000Y-101120000D03*
X117000000Y-103660000D03*
X119540000Y-103660000D03*
X117000000Y-106200000D03*
X119540000Y-106200000D03*
X117000000Y-108740000D03*
X119540000Y-108740000D03*
X117000000Y-111280000D03*
X119540000Y-111280000D03*
X117000000Y-113820000D03*
X119540000Y-113820000D03*
X117000000Y-116360000D03*
X119540000Y-116360000D03*
X117000000Y-118900000D03*
X119540000Y-118900000D03*
X117000000Y-121440000D03*
X119540000Y-121440000D03*
X117000000Y-123980000D03*
X119540000Y-123980000D03*
X117000000Y-126520000D03*
X119540000Y-126520000D03*
X117000000Y-129060000D03*
X119540000Y-129060000D03*
X117000000Y-131600000D03*
X119540000Y-131600000D03*
%TD*%
D28*
%TO.C,R2*%
X166900000Y-90875000D03*
X166900000Y-92875000D03*
%TD*%
D29*
%TO.C,D2*%
X128500000Y-133200000D03*
X133900000Y-133200000D03*
%TD*%
D14*
%TO.C,J7*%
X152920000Y-76000000D03*
D15*
X155460000Y-76000000D03*
X158000000Y-76000000D03*
X160540000Y-76000000D03*
X163080000Y-76000000D03*
%TD*%
D21*
%TO.C,C5*%
X148750000Y-103712500D03*
X148750000Y-105787500D03*
%TD*%
D30*
%TO.C,R6*%
X146279999Y-130550000D03*
X146279999Y-128550000D03*
%TD*%
D14*
%TO.C,J2*%
X148140000Y-140300000D03*
D15*
X145600000Y-140300000D03*
X143060000Y-140300000D03*
%TD*%
D19*
%TO.C,R4*%
X165750000Y-131100000D03*
X162650000Y-131100000D03*
%TD*%
D31*
%TO.C,D1*%
X153425000Y-79100000D03*
X151375000Y-79100000D03*
%TD*%
D10*
%TO.C,H1*%
X116475000Y-77500000D03*
X117068109Y-76068109D03*
X117068109Y-78931891D03*
X118500000Y-75475000D03*
D11*
X118500000Y-77500000D03*
D10*
X118500000Y-79525000D03*
X119931891Y-76068109D03*
X119931891Y-78931891D03*
X120525000Y-77500000D03*
%TD*%
D32*
%TO.C,U3*%
X142900000Y-130600000D03*
X142900000Y-128700000D03*
X139480000Y-129650000D03*
%TD*%
D27*
%TO.C,SW2*%
X158975000Y-92650000D03*
X158975000Y-86150000D03*
X163475000Y-92650000D03*
X163475000Y-86150000D03*
%TD*%
D33*
%TO.C,U2*%
X155525000Y-102250000D03*
X155525000Y-102750000D03*
X155525000Y-103250000D03*
X155525000Y-103750000D03*
X155525000Y-104250000D03*
X155525000Y-104750000D03*
X155525000Y-105250000D03*
X155525000Y-105750000D03*
X155525000Y-106250000D03*
X155525000Y-106750000D03*
X155525000Y-107250000D03*
X155525000Y-107750000D03*
X155525000Y-108250000D03*
X155525000Y-108750000D03*
X155525000Y-109250000D03*
X155525000Y-109750000D03*
D34*
X157450000Y-111675000D03*
X157950000Y-111675000D03*
X158450000Y-111675000D03*
X158950000Y-111675000D03*
X159450000Y-111675000D03*
X159950000Y-111675000D03*
X160450000Y-111675000D03*
X160950000Y-111675000D03*
X161450000Y-111675000D03*
X161950000Y-111675000D03*
X162450000Y-111675000D03*
X162950000Y-111675000D03*
X163450000Y-111675000D03*
X163950000Y-111675000D03*
X164450000Y-111675000D03*
X164950000Y-111675000D03*
D33*
X166875000Y-109750000D03*
X166875000Y-109250000D03*
X166875000Y-108750000D03*
X166875000Y-108250000D03*
X166875000Y-107750000D03*
X166875000Y-107250000D03*
X166875000Y-106750000D03*
X166875000Y-106250000D03*
X166875000Y-105750000D03*
X166875000Y-105250000D03*
X166875000Y-104750000D03*
X166875000Y-104250000D03*
X166875000Y-103750000D03*
X166875000Y-103250000D03*
X166875000Y-102750000D03*
X166875000Y-102250000D03*
D34*
X164950000Y-100325000D03*
X164450000Y-100325000D03*
X163950000Y-100325000D03*
X163450000Y-100325000D03*
X162950000Y-100325000D03*
X162450000Y-100325000D03*
X161950000Y-100325000D03*
X161450000Y-100325000D03*
X160950000Y-100325000D03*
X160450000Y-100325000D03*
X159950000Y-100325000D03*
X159450000Y-100325000D03*
X158950000Y-100325000D03*
X158450000Y-100325000D03*
X157950000Y-100325000D03*
X157450000Y-100325000D03*
%TD*%
M02*
