%TF.GenerationSoftware,KiCad,Pcbnew,8.0.7*%
%TF.CreationDate,2025-02-28T19:14:48+01:00*%
%TF.ProjectId,Clovece nezlob se PCB,436c6f76-6563-4652-906e-657a6c6f6220,rev?*%
%TF.SameCoordinates,Original*%
%TF.FileFunction,Paste,Top*%
%TF.FilePolarity,Positive*%
%FSLAX46Y46*%
G04 Gerber Fmt 4.6, Leading zero omitted, Abs format (unit mm)*
G04 Created by KiCad (PCBNEW 8.0.7) date 2025-02-28 19:14:48*
%MOMM*%
%LPD*%
G01*
G04 APERTURE LIST*
G04 Aperture macros list*
%AMRoundRect*
0 Rectangle with rounded corners*
0 $1 Rounding radius*
0 $2 $3 $4 $5 $6 $7 $8 $9 X,Y pos of 4 corners*
0 Add a 4 corners polygon primitive as box body*
4,1,4,$2,$3,$4,$5,$6,$7,$8,$9,$2,$3,0*
0 Add four circle primitives for the rounded corners*
1,1,$1+$1,$2,$3*
1,1,$1+$1,$4,$5*
1,1,$1+$1,$6,$7*
1,1,$1+$1,$8,$9*
0 Add four rect primitives between the rounded corners*
20,1,$1+$1,$2,$3,$4,$5,0*
20,1,$1+$1,$4,$5,$6,$7,0*
20,1,$1+$1,$6,$7,$8,$9,0*
20,1,$1+$1,$8,$9,$2,$3,0*%
G04 Aperture macros list end*
%ADD10RoundRect,0.250000X0.350000X0.450000X-0.350000X0.450000X-0.350000X-0.450000X0.350000X-0.450000X0*%
%ADD11RoundRect,0.250000X-0.350000X-0.450000X0.350000X-0.450000X0.350000X0.450000X-0.350000X0.450000X0*%
%ADD12RoundRect,0.250000X0.412500X0.650000X-0.412500X0.650000X-0.412500X-0.650000X0.412500X-0.650000X0*%
%ADD13RoundRect,0.250000X0.400000X0.625000X-0.400000X0.625000X-0.400000X-0.625000X0.400000X-0.625000X0*%
%ADD14RoundRect,0.250000X-0.337500X-0.475000X0.337500X-0.475000X0.337500X0.475000X-0.337500X0.475000X0*%
%ADD15RoundRect,0.250000X-0.475000X0.337500X-0.475000X-0.337500X0.475000X-0.337500X0.475000X0.337500X0*%
%ADD16RoundRect,0.375000X-0.375000X0.625000X-0.375000X-0.625000X0.375000X-0.625000X0.375000X0.625000X0*%
%ADD17RoundRect,0.500000X-1.400000X0.500000X-1.400000X-0.500000X1.400000X-0.500000X1.400000X0.500000X0*%
%ADD18RoundRect,0.250000X0.337500X0.475000X-0.337500X0.475000X-0.337500X-0.475000X0.337500X-0.475000X0*%
%ADD19RoundRect,0.250000X-0.450000X0.350000X-0.450000X-0.350000X0.450000X-0.350000X0.450000X0.350000X0*%
%ADD20RoundRect,0.250000X-1.500000X-0.900000X1.500000X-0.900000X1.500000X0.900000X-1.500000X0.900000X0*%
%ADD21RoundRect,0.250000X0.450000X-0.350000X0.450000X0.350000X-0.450000X0.350000X-0.450000X-0.350000X0*%
%ADD22RoundRect,0.250000X0.325000X0.450000X-0.325000X0.450000X-0.325000X-0.450000X0.325000X-0.450000X0*%
%ADD23RoundRect,0.162500X0.837500X0.162500X-0.837500X0.162500X-0.837500X-0.162500X0.837500X-0.162500X0*%
%ADD24RoundRect,0.075000X-0.700000X-0.075000X0.700000X-0.075000X0.700000X0.075000X-0.700000X0.075000X0*%
%ADD25RoundRect,0.075000X-0.075000X-0.700000X0.075000X-0.700000X0.075000X0.700000X-0.075000X0.700000X0*%
G04 APERTURE END LIST*
D10*
%TO.C,R7*%
X135600000Y-129600000D03*
X133600000Y-129600000D03*
%TD*%
D11*
%TO.C,R1*%
X146000000Y-79100000D03*
X148000000Y-79100000D03*
%TD*%
D12*
%TO.C,C4*%
X134625000Y-101050000D03*
X131500000Y-101050000D03*
%TD*%
D13*
%TO.C,R5*%
X171750000Y-131100000D03*
X168650000Y-131100000D03*
%TD*%
D14*
%TO.C,C2*%
X130362500Y-89700000D03*
X132437500Y-89700000D03*
%TD*%
D12*
%TO.C,C1*%
X132362500Y-87200000D03*
X129237500Y-87200000D03*
%TD*%
D15*
%TO.C,C6*%
X152900000Y-104762500D03*
X152900000Y-106837500D03*
%TD*%
D16*
%TO.C,U1*%
X137000000Y-92150000D03*
X134700000Y-92150000D03*
D17*
X134700000Y-98450000D03*
D16*
X132400000Y-92150000D03*
%TD*%
D18*
%TO.C,C3*%
X161262500Y-95650000D03*
X159187500Y-95650000D03*
%TD*%
D13*
%TO.C,R3*%
X159450000Y-131200000D03*
X156350000Y-131200000D03*
%TD*%
D19*
%TO.C,R2*%
X166900000Y-90875000D03*
X166900000Y-92875000D03*
%TD*%
D20*
%TO.C,D2*%
X128500000Y-133200000D03*
X133900000Y-133200000D03*
%TD*%
D15*
%TO.C,C5*%
X148750000Y-103712500D03*
X148750000Y-105787500D03*
%TD*%
D21*
%TO.C,R6*%
X146279999Y-130550000D03*
X146279999Y-128550000D03*
%TD*%
D13*
%TO.C,R4*%
X165750000Y-131100000D03*
X162650000Y-131100000D03*
%TD*%
D22*
%TO.C,D1*%
X153425000Y-79100000D03*
X151375000Y-79100000D03*
%TD*%
D23*
%TO.C,U3*%
X142900000Y-130600000D03*
X142900000Y-128700000D03*
X139480000Y-129650000D03*
%TD*%
D24*
%TO.C,U2*%
X155525000Y-102250000D03*
X155525000Y-102750000D03*
X155525000Y-103250000D03*
X155525000Y-103750000D03*
X155525000Y-104250000D03*
X155525000Y-104750000D03*
X155525000Y-105250000D03*
X155525000Y-105750000D03*
X155525000Y-106250000D03*
X155525000Y-106750000D03*
X155525000Y-107250000D03*
X155525000Y-107750000D03*
X155525000Y-108250000D03*
X155525000Y-108750000D03*
X155525000Y-109250000D03*
X155525000Y-109750000D03*
D25*
X157450000Y-111675000D03*
X157950000Y-111675000D03*
X158450000Y-111675000D03*
X158950000Y-111675000D03*
X159450000Y-111675000D03*
X159950000Y-111675000D03*
X160450000Y-111675000D03*
X160950000Y-111675000D03*
X161450000Y-111675000D03*
X161950000Y-111675000D03*
X162450000Y-111675000D03*
X162950000Y-111675000D03*
X163450000Y-111675000D03*
X163950000Y-111675000D03*
X164450000Y-111675000D03*
X164950000Y-111675000D03*
D24*
X166875000Y-109750000D03*
X166875000Y-109250000D03*
X166875000Y-108750000D03*
X166875000Y-108250000D03*
X166875000Y-107750000D03*
X166875000Y-107250000D03*
X166875000Y-106750000D03*
X166875000Y-106250000D03*
X166875000Y-105750000D03*
X166875000Y-105250000D03*
X166875000Y-104750000D03*
X166875000Y-104250000D03*
X166875000Y-103750000D03*
X166875000Y-103250000D03*
X166875000Y-102750000D03*
X166875000Y-102250000D03*
D25*
X164950000Y-100325000D03*
X164450000Y-100325000D03*
X163950000Y-100325000D03*
X163450000Y-100325000D03*
X162950000Y-100325000D03*
X162450000Y-100325000D03*
X161950000Y-100325000D03*
X161450000Y-100325000D03*
X160950000Y-100325000D03*
X160450000Y-100325000D03*
X159950000Y-100325000D03*
X159450000Y-100325000D03*
X158950000Y-100325000D03*
X158450000Y-100325000D03*
X157950000Y-100325000D03*
X157450000Y-100325000D03*
%TD*%
M02*
